<svg xmlns="http://www.w3.org/2000/svg" xmlns:cc="http://web.resource.org/cc/" xmlns:svg="http://www.w3.org/2000/svg" xmlns:xlink="http://www.w3.org/1999/xlink" id="svg1307" width="48" height="48"><defs id="defs1309"><linearGradient id="linearGradient3064"><stop style="stop-color:#555753;stop-opacity:1" id="stop3066" offset="0"/><stop style="stop-color:#555753;stop-opacity:0" id="stop3068" offset="1"/></linearGradient><linearGradient id="linearGradient2998"><stop style="stop-color:#310000;stop-opacity:1" id="stop3000" offset="0"/><stop style="stop-color:#310000;stop-opacity:0" id="stop3002" offset="1"/></linearGradient><linearGradient id="linearGradient2970"><stop style="stop-color:#fcaf3e;stop-opacity:1" id="stop2972" offset="0"/><stop style="stop-color:#fcaf3e;stop-opacity:0" id="stop2974" offset="1"/></linearGradient><linearGradient id="linearGradient2950"><stop id="stop2952" offset="0" style="stop-color:#fcaf3e;stop-opacity:1"/><stop id="stop2954" offset="1" style="stop-color:#f57900;stop-opacity:0"/></linearGradient><linearGradient id="linearGradient2928"><stop style="stop-color:#a40000;stop-opacity:1" id="stop2930" offset="0"/><stop style="stop-color:#300000;stop-opacity:1" id="stop2932" offset="1"/></linearGradient><linearGradient id="linearGradient2908"><stop style="stop-color:#252829;stop-opacity:1" id="stop2910" offset="0"/><stop style="stop-color:#252829;stop-opacity:0" id="stop2912" offset="1"/></linearGradient><linearGradient id="linearGradient2898"><stop style="stop-color:#f5f5f4;stop-opacity:1" id="stop2900" offset="0"/><stop style="stop-color:#f5f5f4;stop-opacity:0" id="stop2902" offset="1"/></linearGradient><linearGradient id="linearGradient2888"><stop style="stop-color:#ffd79a;stop-opacity:1" id="stop2890" offset="0"/><stop style="stop-color:#eeb660;stop-opacity:0" id="stop2892" offset="1"/></linearGradient><linearGradient id="linearGradient2836"><stop style="stop-color:#555753;stop-opacity:1" id="stop2838" offset="0"/><stop style="stop-color:#0e1011;stop-opacity:1" id="stop2840" offset="1"/></linearGradient><linearGradient id="linearGradient2806"><stop style="stop-color:#ef2929;stop-opacity:1" id="stop2808" offset="0"/><stop style="stop-color:#c00;stop-opacity:1" id="stop2810" offset="1"/></linearGradient><linearGradient id="linearGradient2415"><stop style="stop-color:#eeeeec;stop-opacity:1" id="stop2417" offset="0"/><stop style="stop-color:#eeeeec;stop-opacity:0" id="stop2419" offset="1"/></linearGradient><linearGradient id="linearGradient2551"><stop style="stop-color:#5f3a00;stop-opacity:1" id="stop2553" offset="0"/><stop style="stop-color:#5f3a00;stop-opacity:0" id="stop2555" offset="1"/></linearGradient><linearGradient id="linearGradient2531"><stop style="stop-color:#f1d09e;stop-opacity:1" id="stop2533" offset="0"/><stop style="stop-color:#8f5902;stop-opacity:1" id="stop2535" offset="1"/></linearGradient><linearGradient id="linearGradient2521"><stop style="stop-color:#7f4e01;stop-opacity:1" id="stop2523" offset="0"/><stop style="stop-color:#402700;stop-opacity:1" id="stop2525" offset="1"/></linearGradient><linearGradient id="linearGradient2505"><stop style="stop-color:#e9b96e;stop-opacity:1" id="stop2507" offset="0"/><stop style="stop-color:#774a01;stop-opacity:1" id="stop2509" offset="1"/></linearGradient><linearGradient id="linearGradient2466"><stop style="stop-color:#eeeeec;stop-opacity:1" id="stop2468" offset="0"/><stop style="stop-color:#eeeeec;stop-opacity:0" id="stop2470" offset="1"/></linearGradient><linearGradient id="linearGradient2440"><stop style="stop-color:#60625e;stop-opacity:1" id="stop2442" offset="0"/><stop style="stop-color:#1d2122;stop-opacity:1" id="stop2444" offset="1"/></linearGradient><linearGradient id="linearGradient2432"><stop style="stop-color:#eeeeec;stop-opacity:1" id="stop2434" offset="0"/><stop style="stop-color:#eeeeec;stop-opacity:0" id="stop2436" offset="1"/></linearGradient><linearGradient id="linearGradient2416"><stop style="stop-color:#30312f;stop-opacity:1" id="stop2418" offset="0"/><stop style="stop-color:#555753;stop-opacity:0" id="stop2420" offset="1"/></linearGradient><linearGradient id="linearGradient2404"><stop style="stop-color:#d3d7cf;stop-opacity:1" id="stop2406" offset="0"/><stop style="stop-color:#555856;stop-opacity:1" id="stop2408" offset="1"/></linearGradient><linearGradient id="linearGradient2396"><stop style="stop-color:#e1e2df;stop-opacity:1" id="stop2398" offset="0"/><stop style="stop-color:#888a85;stop-opacity:1" id="stop2400" offset="1"/></linearGradient><linearGradient id="linearGradient2472" x1="19.75" x2="17.125" y1="14.33" y2="5.455" gradientUnits="userSpaceOnUse" xlink:href="#linearGradient2466"/><linearGradient id="linearGradient2421" x1="84.868" x2="241.798" y1="184" y2="184" gradientUnits="userSpaceOnUse" xlink:href="#linearGradient2415"/><linearGradient id="linearGradient2492" x1="12.255" x2="20.264" y1="14.821" y2="8.149" gradientTransform="matrix(-0.995183,-1.247998e-2,-5.847668e-2,0.871673,48.68624,0.180256)" gradientUnits="userSpaceOnUse" xlink:href="#linearGradient2415"/><linearGradient id="linearGradient2498" x1="21.664" x2="29" y1="-.025" y2="15.225" gradientTransform="translate(-0.175922,0)" gradientUnits="userSpaceOnUse" xlink:href="#linearGradient2415"/><linearGradient id="linearGradient2501" x1="36.82" x2="36.82" y1="18" y2="11.375" gradientTransform="translate(-1,0)" gradientUnits="userSpaceOnUse" xlink:href="#linearGradient2432"/><linearGradient id="linearGradient2504" x1="18.996" x2="20.007" y1="7.247" y2="23.842" gradientTransform="translate(-1,0)" gradientUnits="userSpaceOnUse" xlink:href="#linearGradient2404"/><radialGradient id="radialGradient2507" cx="25" cy="-14.446" r="20" fx="25" fy="-14.446" gradientTransform="matrix(-2.237544,2.205578e-16,-1.90858e-15,-1.010096,79.9386,-1.441658)" gradientUnits="userSpaceOnUse" xlink:href="#linearGradient2416"/><linearGradient id="linearGradient2510" x1="31.117" x2="26.548" y1="23.842" y2="-1.775" gradientTransform="translate(-1,0)" gradientUnits="userSpaceOnUse" xlink:href="#linearGradient2396"/><linearGradient id="linearGradient2513" x1="22.675" x2="27.513" y1="-1.304" y2="23.544" gradientTransform="translate(-1,0)" gradientUnits="userSpaceOnUse" xlink:href="#linearGradient2440"/><linearGradient id="linearGradient2522" x1="32.4" x2="32.4" y1="17.6" y2="42.369" gradientTransform="matrix(0.901767,0,0,1,1.455816,0)" gradientUnits="userSpaceOnUse" xlink:href="#linearGradient2521"/><linearGradient id="linearGradient2524" x1="17.6" x2="32.4" y1="48.4" y2="48.4" gradientTransform="matrix(0.901767,0,0,1,1.455816,0)" gradientUnits="userSpaceOnUse" xlink:href="#linearGradient2505"/><linearGradient id="linearGradient2526" x1="24" x2="24.923" y1="40" y2="48.45" gradientUnits="userSpaceOnUse" xlink:href="#linearGradient2551"/><linearGradient id="linearGradient2528" x1="19.348" x2="29.712" y1="31.764" y2="33" gradientUnits="userSpaceOnUse" xlink:href="#linearGradient2531"/><linearGradient id="linearGradient2532" x1="12.9" x2="18.573" y1="12.908" y2="9.713" gradientTransform="matrix(0.995183,-1.247998e-2,5.847668e-2,0.871673,-0.863009,0.216602)" gradientUnits="userSpaceOnUse" xlink:href="#linearGradient2415"/><linearGradient id="linearGradient2562" x1="23.906" x2="24.746" y1="6.047" y2="21.636" gradientTransform="matrix(0.99855,-5.07831e-2,-5.38331e-2,-0.941975,0.31867,18.18444)" gradientUnits="userSpaceOnUse" xlink:href="#linearGradient2415"/><linearGradient id="linearGradient2812" x1="23.277" x2="29.111" y1="32.055" y2="31.967" gradientUnits="userSpaceOnUse" xlink:href="#linearGradient2806"/><linearGradient id="linearGradient2820" x1="22.668" x2="27.389" y1="32.237" y2="31.441" gradientUnits="userSpaceOnUse" xlink:href="#linearGradient2806"/><linearGradient id="linearGradient2848" x1="17.806" x2="25.709" y1="34.004" y2="34.579" gradientUnits="userSpaceOnUse" xlink:href="#linearGradient2928"/><linearGradient id="linearGradient2884" x1="18.827" x2="23.335" y1="31.339" y2="31.25" gradientUnits="userSpaceOnUse" xlink:href="#linearGradient2950"/><linearGradient id="linearGradient2894" x1="19.445" x2="29.433" y1="42.078" y2="34.035" gradientUnits="userSpaceOnUse" xlink:href="#linearGradient2888"/><linearGradient id="linearGradient2904" x1="4.773" x2="7.867" y1="17.55" y2="8.093" gradientUnits="userSpaceOnUse" xlink:href="#linearGradient2898"/><linearGradient id="linearGradient2914" x1="11.358" x2="9.369" y1="23.826" y2="17.771" gradientUnits="userSpaceOnUse" xlink:href="#linearGradient2908"/><linearGradient id="linearGradient2934" x1="18.681" x2="29.907" y1="29.934" y2="29.934" gradientUnits="userSpaceOnUse" xlink:href="#linearGradient2928"/><linearGradient id="linearGradient2948" x1="19.625" x2="28.5" y1="27.072" y2="27.072" gradientUnits="userSpaceOnUse" xlink:href="#linearGradient2950"/><linearGradient id="linearGradient2964" x1="30.038" x2="41.213" y1="32.262" y2="39.525" gradientTransform="matrix(0.987553,-0.157288,0.157288,0.987553,-8.477984,4.337585)" gradientUnits="userSpaceOnUse" xlink:href="#linearGradient2928"/><linearGradient id="linearGradient2976" x1="7.225" x2="42.109" y1="37.761" y2="37.761" gradientTransform="matrix(0.987553,-0.157288,0.157288,0.987553,-8.477984,4.337585)" gradientUnits="userSpaceOnUse" xlink:href="#linearGradient2806"/><linearGradient id="linearGradient2978" x1="25.413" x2="41.9" y1="35.894" y2="35.894" gradientTransform="matrix(0.987553,-0.157288,0.157288,0.987553,-8.477984,4.337585)" gradientUnits="userSpaceOnUse" xlink:href="#linearGradient2806"/><linearGradient id="linearGradient2986" x1="7.225" x2="42.109" y1="37.761" y2="37.761" gradientTransform="matrix(0.987553,-0.157288,0.157288,0.987553,-8.477984,4.337585)" gradientUnits="userSpaceOnUse" xlink:href="#linearGradient2928"/><linearGradient id="linearGradient3004" x1="36.125" x2="35.656" y1="37.699" y2="41.324" gradientTransform="matrix(0.987553,-0.157288,0.157288,0.987553,-8.477984,4.337585)" gradientUnits="userSpaceOnUse" xlink:href="#linearGradient2998"/><linearGradient id="linearGradient3014" x1="20.375" x2="11.563" y1="38.406" y2="37.719" gradientTransform="matrix(0.987553,-0.157288,0.157288,0.987553,-5.649557,3.895643)" gradientUnits="userSpaceOnUse" xlink:href="#linearGradient2998"/><linearGradient id="linearGradient3032" x1="32.878" x2="39.863" y1="31.905" y2="36.03" gradientTransform="matrix(0.987553,-0.157288,0.157288,0.987553,-8.477984,4.337585)" gradientUnits="userSpaceOnUse" xlink:href="#linearGradient2970"/><linearGradient id="linearGradient3042" x1="9.375" x2="13.313" y1="39.688" y2="35" gradientTransform="matrix(0.987553,-0.157288,0.157288,0.987553,-8.477984,4.337585)" gradientUnits="userSpaceOnUse" xlink:href="#linearGradient2950"/><linearGradient id="linearGradient3052" x1="6.541" x2="32.085" y1="2.197" y2="2.197" gradientUnits="userSpaceOnUse" xlink:href="#linearGradient2898"/><radialGradient id="radialGradient3070" cx="23.6" cy="27.317" r="19.18" fx="23.6" fy="27.317" gradientTransform="matrix(1,0,0,0.728111,0,7.427237)" gradientUnits="userSpaceOnUse" xlink:href="#linearGradient3064"/><radialGradient id="radialGradient1552" cx="18.634" cy="17.486" r="40.693" fx="18.934" fy="17.81" gradientTransform="scale(1.036822,0.964486)" gradientUnits="userSpaceOnUse" xlink:href="#linearGradient4750"/><radialGradient id="radialGradient1544" cx="18.634" cy="17.486" r="40.693" fx="18.934" fy="17.81" gradientTransform="scale(1.036822,0.964486)" gradientUnits="userSpaceOnUse" xlink:href="#linearGradient4750"/><radialGradient id="radialGradient1542" cx="18.634" cy="17.486" r="40.693" fx="18.934" fy="17.81" gradientTransform="scale(1.036822,0.964486)" gradientUnits="userSpaceOnUse" xlink:href="#linearGradient4750"/><radialGradient id="radialGradient1540" cx="18.634" cy="17.486" r="40.693" fx="18.934" fy="17.81" gradientTransform="scale(1.036822,0.964486)" gradientUnits="userSpaceOnUse" xlink:href="#linearGradient4750"/><radialGradient id="radialGradient1538" cx="18.634" cy="17.486" r="40.693" fx="18.934" fy="17.81" gradientTransform="scale(1.036822,0.964486)" gradientUnits="userSpaceOnUse" xlink:href="#linearGradient4750"/><radialGradient id="radialGradient1536" cx="18.634" cy="17.486" r="40.693" fx="18.934" fy="17.81" gradientTransform="scale(1.036822,0.964486)" gradientUnits="userSpaceOnUse" xlink:href="#linearGradient4750"/><radialGradient id="radialGradient1534" cx="18.634" cy="17.486" r="40.693" fx="18.934" fy="17.81" gradientTransform="scale(1.036822,0.964486)" gradientUnits="userSpaceOnUse" xlink:href="#linearGradient4750"/><radialGradient id="radialGradient1532" cx="18.634" cy="17.486" r="40.693" fx="18.934" fy="17.81" gradientTransform="scale(1.036822,0.964486)" gradientUnits="userSpaceOnUse" xlink:href="#linearGradient4750"/><radialGradient id="radialGradient1530" cx="18.634" cy="17.486" r="40.693" fx="18.934" fy="17.81" gradientTransform="scale(1.036822,0.964486)" gradientUnits="userSpaceOnUse" xlink:href="#linearGradient4750"/><radialGradient id="radialGradient1528" cx="18.634" cy="17.486" r="40.693" fx="18.934" fy="17.81" gradientTransform="scale(1.036822,0.964486)" gradientUnits="userSpaceOnUse" xlink:href="#linearGradient4750"/><radialGradient id="radialGradient1526" cx="18.634" cy="17.486" r="40.693" fx="18.934" fy="17.81" gradientTransform="scale(1.036822,0.964486)" gradientUnits="userSpaceOnUse" xlink:href="#linearGradient4750"/><radialGradient id="radialGradient1524" cx="18.634" cy="17.486" r="40.693" fx="18.934" fy="17.81" gradientTransform="scale(1.036822,0.964486)" gradientUnits="userSpaceOnUse" xlink:href="#linearGradient4750"/><radialGradient id="radialGradient1516" cx="18.634" cy="17.486" r="40.693" fx="18.934" fy="17.81" gradientTransform="scale(1.036822,0.964486)" gradientUnits="userSpaceOnUse" xlink:href="#linearGradient4750"/><radialGradient id="radialGradient1508" cx="18.634" cy="17.486" r="40.693" fx="18.934" fy="17.81" gradientTransform="scale(1.036822,0.964486)" gradientUnits="userSpaceOnUse" xlink:href="#linearGradient4750"/><radialGradient id="radialGradient1500" cx="18.634" cy="17.486" r="40.693" fx="18.934" fy="17.81" gradientTransform="scale(1.036822,0.964486)" gradientUnits="userSpaceOnUse" xlink:href="#linearGradient4750"/><radialGradient id="radialGradient1492" cx="18.634" cy="17.486" r="40.693" fx="18.934" fy="17.81" gradientTransform="scale(1.036822,0.964486)" gradientUnits="userSpaceOnUse" xlink:href="#linearGradient4750"/><radialGradient id="radialGradient1484" cx="18.634" cy="17.486" r="40.693" fx="18.934" fy="17.81" gradientTransform="scale(1.036822,0.964486)" gradientUnits="userSpaceOnUse" xlink:href="#linearGradient4750"/><radialGradient id="radialGradient1476" cx="18.634" cy="17.486" r="40.693" fx="18.934" fy="17.81" gradientTransform="scale(1.036822,0.964486)" gradientUnits="userSpaceOnUse" xlink:href="#linearGradient4750"/><radialGradient id="radialGradient1468" cx="18.634" cy="17.486" r="40.693" fx="18.934" fy="17.81" gradientTransform="scale(1.036822,0.964486)" gradientUnits="userSpaceOnUse" xlink:href="#linearGradient4750"/><radialGradient id="radialGradient4756" cx="18.634" cy="17.486" r="40.693" fx="18.934" fy="17.81" gradientTransform="scale(1.036822,0.964486)" gradientUnits="userSpaceOnUse" xlink:href="#linearGradient4750"/><radialGradient id="radialGradient4356" cx="11.827" cy="10.476" r="32.665" fx="11.827" fy="10.476" gradientTransform="scale(1.179536,0.847791)" gradientUnits="userSpaceOnUse" xlink:href="#linearGradient4350"/><radialGradient id="radialGradient4132" cx="15.601" cy="12.142" r="43.527" fx="15.601" fy="12.142" gradientTransform="scale(0.999989,1.000011)" gradientUnits="userSpaceOnUse" xlink:href="#linearGradient4126"/><radialGradient id="radialGradient4120" cx="15.116" cy="63.965" r="12.289" fx="15.116" fy="63.965" gradientTransform="scale(1.64399,0.608276)" gradientUnits="userSpaceOnUse" xlink:href="#linearGradient4114"/><radialGradient id="radialGradient3968" cx="18.248" cy="15.716" r="29.993" fx="18.248" fy="15.716" gradientTransform="scale(0.999989,1.000011)" gradientUnits="userSpaceOnUse" xlink:href="#linearGradient3962"/><linearGradient id="linearGradient3962"><stop id="stop3964" offset="0" style="stop-color:#d3e9ff;stop-opacity:1"/><stop id="stop4134" offset=".155" style="stop-color:#d3e9ff;stop-opacity:1"/><stop id="stop4346" offset=".75" style="stop-color:#4074ae;stop-opacity:1"/><stop id="stop3966" offset="1" style="stop-color:#36486c;stop-opacity:1"/></linearGradient><linearGradient id="linearGradient4114"><stop id="stop4116" offset="0" style="stop-color:#000;stop-opacity:1"/><stop id="stop4118" offset="1" style="stop-color:#000;stop-opacity:0"/></linearGradient><linearGradient id="linearGradient4126"><stop id="stop4128" offset="0" style="stop-color:#fff;stop-opacity:1"/><stop id="stop4130" offset="1" style="stop-color:#fff;stop-opacity:.16494845"/></linearGradient><linearGradient id="linearGradient4350"><stop id="stop4352" offset="0" style="stop-color:#fff;stop-opacity:1"/><stop id="stop4354" offset="1" style="stop-color:#fff;stop-opacity:0"/></linearGradient><linearGradient id="linearGradient4750"><stop id="stop4752" offset="0" style="stop-color:#fff;stop-opacity:1"/><stop id="stop4758" offset=".379" style="stop-color:#fefefe;stop-opacity:1"/><stop id="stop4754" offset="1" style="stop-color:#1d1d1d;stop-opacity:1"/></linearGradient><radialGradient id="radialGradient3664" cx="15.601" cy="12.142" r="43.527" fx="15.601" fy="12.142" gradientTransform="matrix(0.999989,0,0,1.000011,-95.20687,-6.485908)" gradientUnits="userSpaceOnUse" xlink:href="#linearGradient4126"/><radialGradient id="radialGradient3750" cx="18.248" cy="15.716" r="29.993" fx="18.248" fy="15.716" gradientTransform="matrix(0.999989,0,0,1.000011,-95.20687,-6.485908)" gradientUnits="userSpaceOnUse" xlink:href="#linearGradient3962"/><radialGradient id="radialGradient3753" cx="18.634" cy="17.486" r="40.693" fx="18.934" fy="17.81" gradientTransform="scale(1.036822,0.964486)" gradientUnits="userSpaceOnUse" xlink:href="#linearGradient4750"/><radialGradient id="radialGradient3755" cx="18.634" cy="17.486" r="40.693" fx="18.934" fy="17.81" gradientTransform="scale(1.036822,0.964486)" gradientUnits="userSpaceOnUse" xlink:href="#linearGradient4750"/><radialGradient id="radialGradient3757" cx="18.634" cy="17.486" r="40.693" fx="18.934" fy="17.81" gradientTransform="scale(1.036822,0.964486)" gradientUnits="userSpaceOnUse" xlink:href="#linearGradient4750"/><radialGradient id="radialGradient3759" cx="18.634" cy="17.486" r="40.693" fx="18.934" fy="17.81" gradientTransform="scale(1.036822,0.964486)" gradientUnits="userSpaceOnUse" xlink:href="#linearGradient4750"/><radialGradient id="radialGradient3761" cx="18.634" cy="17.486" r="40.693" fx="18.934" fy="17.81" gradientTransform="scale(1.036822,0.964486)" gradientUnits="userSpaceOnUse" xlink:href="#linearGradient4750"/><radialGradient id="radialGradient3763" cx="18.634" cy="17.486" r="40.693" fx="18.934" fy="17.81" gradientTransform="scale(1.036822,0.964486)" gradientUnits="userSpaceOnUse" xlink:href="#linearGradient4750"/><radialGradient id="radialGradient3765" cx="18.634" cy="17.486" r="40.693" fx="18.934" fy="17.81" gradientTransform="scale(1.036822,0.964486)" gradientUnits="userSpaceOnUse" xlink:href="#linearGradient4750"/><radialGradient id="radialGradient3767" cx="18.634" cy="17.486" r="40.693" fx="18.934" fy="17.81" gradientTransform="scale(1.036822,0.964486)" gradientUnits="userSpaceOnUse" xlink:href="#linearGradient4750"/><radialGradient id="radialGradient3769" cx="18.634" cy="17.486" r="40.693" fx="18.934" fy="17.81" gradientTransform="scale(1.036822,0.964486)" gradientUnits="userSpaceOnUse" xlink:href="#linearGradient4750"/><radialGradient id="radialGradient3771" cx="18.634" cy="17.486" r="40.693" fx="18.934" fy="17.81" gradientTransform="scale(1.036822,0.964486)" gradientUnits="userSpaceOnUse" xlink:href="#linearGradient4750"/><radialGradient id="radialGradient3773" cx="18.634" cy="17.486" r="40.693" fx="18.934" fy="17.81" gradientTransform="scale(1.036822,0.964486)" gradientUnits="userSpaceOnUse" xlink:href="#linearGradient4750"/><radialGradient id="radialGradient3775" cx="18.634" cy="17.486" r="40.693" fx="18.934" fy="17.81" gradientTransform="scale(1.036822,0.964486)" gradientUnits="userSpaceOnUse" xlink:href="#linearGradient4750"/><radialGradient id="radialGradient3777" cx="18.634" cy="17.486" r="40.693" fx="18.934" fy="17.81" gradientTransform="scale(1.036822,0.964486)" gradientUnits="userSpaceOnUse" xlink:href="#linearGradient4750"/><radialGradient id="radialGradient3779" cx="18.634" cy="17.486" r="40.693" fx="18.934" fy="17.81" gradientTransform="scale(1.036822,0.964486)" gradientUnits="userSpaceOnUse" xlink:href="#linearGradient4750"/><radialGradient id="radialGradient3861" cx="15.116" cy="63.965" r="12.289" fx="15.116" fy="63.965" gradientTransform="scale(1.64399,0.608276)" gradientUnits="userSpaceOnUse" xlink:href="#linearGradient4114"/></defs><metadata id="metadata1312"/><g id="layer1"><path style="fill:url(#radialGradient3861);fill-opacity:1;stroke:none;stroke-opacity:1" id="path4112" d="M 45.052803 38.908627 A 20.203051 7.4751287 0 1 1 4.6467018,38.908627 A 20.203051 7.4751287 0 1 1 45.052803 38.908627 z" transform="matrix(1.14,0,0,1.47973,-4.328718,-36.03076)"/><path style="opacity:1;fill:url(#linearGradient2976);fill-opacity:1;fill-rule:evenodd;stroke:url(#linearGradient2986);stroke-width:.80000019;stroke-linecap:butt;stroke-linejoin:miter;stroke-miterlimit:10;stroke-dasharray:none;stroke-dashoffset:0;stroke-opacity:1" id="path2968" d="M 8.695305,36.663813 C 8.695305,36.663813 14.161451,37.525566 18.279907,36.363316 C 22.398363,35.201065 35.983548,32.760617 35.983548,32.760617 L 38.730911,36.500036 C 39.574233,37.821338 38.275331,38.407941 34.799234,38.835005 C 31.323138,39.262069 30.323739,37.70032 24.533885,39.801112 C 16.91421,42.565838 5.2846446,42.270052 5.2846446,42.270052 L 8.695305,36.663813 z"/><path style="opacity:1;fill:url(#linearGradient3014);fill-opacity:1;fill-rule:evenodd;stroke:none;stroke-width:.80000001;stroke-linecap:butt;stroke-linejoin:miter;stroke-miterlimit:4;stroke-dasharray:none;stroke-dashoffset:0;stroke-opacity:1" id="path3006" d="M 14.938268,37.269184 L 13.703016,40.3682 L 17.73882,40.023733 L 18.003412,36.772039 L 14.938268,37.269184 z"/><path style="opacity:1;fill:url(#linearGradient2978);fill-opacity:1;fill-rule:evenodd;stroke:url(#linearGradient2964);stroke-width:.80000019;stroke-linecap:butt;stroke-linejoin:miter;stroke-miterlimit:4;stroke-dasharray:none;stroke-dashoffset:0;stroke-opacity:1" id="path2956" d="M 23.936302,33.413631 C 27.368724,31.917631 33.96428,29.221672 36.178545,32.792847 C 36.178545,32.792847 37.422375,34.145292 38.659359,36.448144 C 33.28514,32.209433 28.090703,37.24539 23.15729,38.853878 L 23.936302,33.413631 z"/><path id="path2190" d="M 7,2 C 7,2 15,1.6464466 23,1.6464466 C 25.323966,1.6464466 27.816708,1.6762822 30.184054,1.7186192 C 35.966038,1.8220226 41,2 41,2 C 41,2 43,8 44,16 C 44,16 43,19 41,23 C 41,23 31,23.441942 23,23.441942 C 15,23.441942 7,23 7,23 C 5,19 4,16 4,16 C 5,8 7,2 7,2 z" style="fill:none;fill-opacity:1;fill-rule:evenodd;stroke:url(#linearGradient2513);stroke-width:2.4000001;stroke-linecap:butt;stroke-linejoin:miter;stroke-miterlimit:100;stroke-dasharray:none;stroke-dashoffset:0;stroke-opacity:1"/><path style="fill:url(#linearGradient2510);fill-opacity:1;fill-rule:evenodd;stroke:none;stroke-width:.80000001;stroke-linecap:butt;stroke-linejoin:miter;stroke-miterlimit:100;stroke-dasharray:none;stroke-dashoffset:0;stroke-opacity:1" id="path1315" d="M 7,2 C 7,2 15,1.6464466 23,1.6464466 C 31,1.6464466 41,2 41,2 C 41,2 43,8 44,16 C 44,16 43,19 41,23 C 41,23 31,23.441942 23,23.441942 C 15,23.441942 7,23 7,23 C 5,19 4,16 4,16 C 5,8 7,2 7,2 z"/><path style="fill:url(#radialGradient2507);fill-opacity:1;fill-rule:evenodd;stroke:none;stroke-width:2.4000001;stroke-linecap:butt;stroke-linejoin:miter;stroke-miterlimit:100;stroke-dasharray:none;stroke-dashoffset:0;stroke-opacity:1" id="path2414" d="M 18.53125,15.6875 C 9.354233,15.759987 4,16 4,16 L 7,23 C 7,23 23.852661,23.618718 41,23 L 44,16 C 44,16 42.050033,15.876769 36.78125,15.78125 L 33,19.46875 L 35.15257,14.189958 C 33.15257,15.252458 32.46967,15.75 32.46967,15.75 C 29.666523,15.708177 27.794643,15.6875 24,15.6875 C 22.046875,15.6875 20.230698,15.674076 18.53125,15.6875 z"/><path id="path2412" d="M 7,2 C 7,2 15,1.6464466 23,1.6464466 C 31,1.6464466 41,2 41,2 C 41,2 43,8 44,16 C 44,16 43,19 41,23 C 41,23 31,23.441942 23,23.441942 C 15,23.441942 7,23 7,23 C 5,19 4,16 4,16 C 5,8 7,2 7,2 z" style="fill:none;fill-opacity:1;fill-rule:evenodd;stroke:url(#linearGradient2504);stroke-width:.80000001;stroke-linecap:butt;stroke-linejoin:miter;stroke-miterlimit:100;stroke-dasharray:none;stroke-dashoffset:0;stroke-opacity:1"/><path style="opacity:1;fill:url(#linearGradient3004);fill-opacity:1;fill-rule:evenodd;stroke:none;stroke-width:.80000001;stroke-linecap:butt;stroke-linejoin:miter;stroke-miterlimit:4;stroke-dasharray:none;stroke-dashoffset:0;stroke-opacity:1" id="path2988" d="M 27.307964,37.496629 C 27.307964,37.496629 30.785017,37.217969 33.533673,37.644238 C 35.496613,37.948656 38.419546,36.929352 38.419546,36.929352 C 38.419546,36.929352 37.447053,35.097389 34.076115,35.089621 C 31.116811,35.082801 27.379516,37.548521 27.307964,37.496629 z"/><path style="opacity:1;fill:url(#linearGradient3032);fill-opacity:1;fill-rule:evenodd;stroke:none;stroke-width:.80000001;stroke-linecap:butt;stroke-linejoin:miter;stroke-miterlimit:4;stroke-dasharray:none;stroke-dashoffset:0;stroke-opacity:1" id="path3016" d="M 27.626606,34.54614 L 28.321327,35.893745 C 28.321327,35.893745 33.548614,33.170454 36.728794,34.73369 C 34.218372,31.475114 27.626606,34.54614 27.626606,34.54614 z"/><g id="g2515"><path style="opacity:1;fill:none;fill-opacity:1;fill-rule:evenodd;stroke:url(#linearGradient2522);stroke-width:2.4000001;stroke-linecap:butt;stroke-linejoin:miter;stroke-miterlimit:100;stroke-dasharray:none;stroke-dashoffset:0;stroke-opacity:1" id="path2529" d="M 20.392931,21 C 20.392931,21 21.520139,19 24,19 C 26.479861,19 27.60707,21 27.60707,21 C 28.396117,35.125 29.312372,41 29.312372,42 C 29.312372,43 29.410604,47 24,47 C 18.589395,47 18.687628,43 18.687628,42 C 18.687628,41 19.603884,34.75 20.392931,21 z"/><path id="path2495" d="M 20.392931,21 C 20.392931,21 21.520139,19 24,19 C 26.479861,19 27.60707,21 27.60707,21 C 28.396117,35.125 29.312372,41 29.312372,42 C 29.312372,43 29.410604,47 24,47 C 18.589395,47 18.687628,43 18.687628,42 C 18.687628,41 19.603884,34.75 20.392931,21 z" style="opacity:1;fill:url(#linearGradient2524);fill-opacity:1;fill-rule:evenodd;stroke:none;stroke-width:.80000025;stroke-linecap:butt;stroke-linejoin:miter;stroke-miterlimit:100;stroke-dasharray:none;stroke-dashoffset:0;stroke-opacity:1"/><path id="path2541" d="M 19,43 C 19,43 19.75,41 24,41 C 28.25,41 29,43 29,43 C 29,43 31,47 24,47 C 17,47 19,43 19,43 z" style="opacity:1;fill:url(#linearGradient2526);fill-opacity:1;fill-rule:evenodd;stroke:none;stroke-width:2.4000001;stroke-linecap:butt;stroke-linejoin:miter;stroke-miterlimit:100;stroke-dasharray:none;stroke-dashoffset:0;stroke-opacity:1"/><path style="opacity:1;fill:none;fill-opacity:1;fill-rule:evenodd;stroke:url(#linearGradient2528);stroke-width:.80000025;stroke-linecap:butt;stroke-linejoin:miter;stroke-miterlimit:100;stroke-dasharray:none;stroke-dashoffset:0;stroke-opacity:1" id="path2539" d="M 20.392931,21 C 20.392931,21 21.520139,19 24,19 C 26.479861,19 27.60707,21 27.60707,21 C 28.396117,35.125 29.312372,41 29.312372,42 C 29.312372,43 29.410604,47 24,47 C 18.589395,47 18.687628,43 18.687628,42 C 18.687628,41 19.603884,34.75 20.392931,21 z"/></g><path style="fill:url(#linearGradient2501);fill-opacity:1;fill-rule:evenodd;stroke:none;stroke-width:2.4000001;stroke-linecap:butt;stroke-linejoin:miter;stroke-miterlimit:100;stroke-dasharray:none;stroke-dashoffset:0;stroke-opacity:1" id="path2430" d="M 33.0625,19.375 C 33.0625,19.375 34,16.5625 35.25,14.25 C 35.25,14.25 36.875,14.75 36.6875,15.8125 L 33.0625,19.375 z"/><path style="fill:url(#linearGradient2562);fill-opacity:1;fill-rule:evenodd;stroke:none;stroke-width:.4;stroke-linecap:butt;stroke-linejoin:miter;stroke-opacity:1;stroke-miterlimit:4;stroke-dasharray:none" id="path1540" d="M 24.312253,14.927167 L 23.786062,14.481571 C 23.321883,14.088489 22.192548,13.402225 21.437629,12.268744 C 20.961701,11.554158 20.802987,10.579553 20.872151,9.492885 C 19.594718,9.1316434 18.558371,8.5950089 17.8987,7.8432461 C 16.79386,6.5841661 16.298664,5.1097121 15.497357,4.1569951 L 14.82616,3.3645061 L 15.892166,3.3988601 C 17.706227,3.4583191 19.665801,3.4077921 21.488657,3.8522971 C 21.962051,3.9677331 22.397191,4.1533741 22.8329,4.3743791 C 22.314414,4.7066011 21.991633,5.0455901 21.791204,5.3130241 C 21.787114,5.3184821 21.233613,5.0480101 20.926808,4.9731951 C 19.591085,4.6474791 18.953662,4.9542941 17.44963,4.9138551 C 18.057526,5.8750511 17.956287,6.4201531 18.678059,7.2426871 C 19.226052,7.8671821 20.546857,8.2545467 21.731665,8.6520712 C 22.916473,9.0495956 24.678049,8.8352206 24.900161,8.7861543 L 24.862062,9.7623274 C 24.56845,9.8287938 24.236561,9.8827053 23.868559,9.9014206 C 22.764553,9.9575669 22.143767,9.7000706 22.071387,9.668074 C 22.029161,10.50924 22.225239,11.233855 22.599855,11.796325 C 23.067964,12.499172 24.164643,12.98161 24.298201,13.038455 C 24.825417,12.250889 25.309014,12.056059 25.665567,11.2271 C 25.881726,10.724544 26.283552,9.9703654 25.710724,8.1840082 C 25.353944,7.0713911 24.894753,6.8013491 24.425691,6.5075461 L 25.295299,5.8433521 C 25.575711,6.0314351 25.895394,6.2977581 26.153725,6.6263191 C 26.802144,7.4510161 26.756957,8.190695 26.74889,8.2788217 C 26.74889,8.2788217 27.971111,7.3474081 28.472965,6.6855041 C 29.123809,5.8270971 29.362003,5.2679611 29.966073,4.3363531 C 28.625612,4.4184311 27.752796,4.1108671 26.316807,4.5514661 C 25.928482,4.6706141 25.11924,5.1597611 24.157469,5.9910141 C 23.195699,6.8222681 22.719283,7.3345121 22.469725,7.8764781 L 21.232555,7.5851301 C 21.24694,7.5505081 22.676728,5.0557691 24.110663,4.4042561 C 25.5446,3.7527451 30.188035,3.2917851 31.68586,3.2156101 L 32.902843,3.1537181 L 32.105738,3.9913591 C 31.272357,4.8671191 30.6325,5.9898321 29.635027,7.3054181 C 29.040243,8.0898883 28.060556,8.7063768 26.832246,9.1897735 C 26.832246,9.1897735 26.961587,10.577923 26.53501,11.65524 C 26.077815,12.80988 24.969694,13.499402 24.590654,14.322563 L 24.312253,14.927167 z"/><path id="path2461" d="M 26.618719,3.8838835 C 27.894337,5.5176155 31.073893,7.2454957 32.650457,7.6945118 C 32.677757,7.7022871 32.717439,7.6886703 32.743755,7.6956818 C 32.750481,7.6953545 32.768114,7.6964572 32.774855,7.6960717 C 33.172599,7.6733319 33.58505,7.5352445 34.080998,7.2489851 C 35.53372,6.4104782 34.943319,6.6337427 36.528616,6.0255942 C 36.545154,6.0192499 36.575462,6.0049086 36.592643,5.9991343 C 37.587847,5.6864747 39.579294,6.2878804 39.927627,6.3953704 C 39.590145,6.4372315 38.165951,6.6678316 37.174497,7.5331419 C 37.168195,7.5386411 37.148023,7.5545701 37.14157,7.5599917 C 37.134964,7.5653368 37.1154,7.5815732 37.108643,7.5868415 C 36.818573,7.8049203 36.373354,7.9632275 35.862871,8.0619482 C 36.631784,8.1184278 37.433435,8.2032503 38.272182,8.3375254 C 39.837906,8.5881822 40.806593,9.1323007 41.252349,9.8470823 C 41.698105,10.561865 41.551166,11.437068 40.95066,12.024315 C 39.207946,13.728553 34.547003,12.854295 34.566068,11.153633 C 34.567066,11.124689 34.569638,11.074087 34.573378,11.044674 C 34.578925,11.007766 34.603623,10.946468 34.613614,10.908866 C 34.624511,10.871127 34.638336,10.81145 34.653851,10.773057 C 34.660433,10.757649 34.681262,10.734475 34.688605,10.718967 C 35.61367,8.7649393 37.855074,9.9428393 38.603481,10.822585 C 37.799008,10.350982 36.6783,10.260341 36.285641,10.575418 C 36.278218,10.581754 36.259573,10.595613 36.252714,10.602267 C 36.242858,10.612489 36.226487,10.64542 36.21796,10.656357 C 36.215423,10.660164 36.187414,10.679321 36.185033,10.683207 C 36.182809,10.687173 36.185271,10.706399 36.183206,10.710447 C 36.181302,10.714573 36.183119,10.733479 36.181379,10.737687 C 36.176651,10.750547 36.149832,10.77819 36.146625,10.791775 C 36.145727,10.796385 36.145519,10.814326 36.144796,10.819016 C 36.144252,10.823787 36.143336,10.841404 36.142969,10.846256 C 36.142783,10.851189 36.141147,10.868481 36.141142,10.873495 C 36.139857,12.278406 39.884521,12.296489 40.206034,11.060783 C 40.284146,10.760563 40.278622,10.502605 40.226101,10.297679 C 40.220025,10.276042 40.20788,10.236264 40.200483,10.21557 C 40.192654,10.195182 40.183975,10.152943 40.174866,10.133461 C 40.168515,10.120669 40.154324,10.090995 40.147421,10.078591 C 39.831724,9.5411977 38.983136,9.3599086 38.027109,9.2068588 C 36.068438,8.8932946 33.975207,9.1995935 32.251747,8.9981217 C 29.644355,8.6933177 28.491603,8.3334502 27.065279,6.5067027 L 26.618719,3.8838835 z" style="fill:url(#linearGradient2492);fill-opacity:1;fill-rule:evenodd;stroke:none;stroke-width:.4;stroke-linecap:butt;stroke-linejoin:miter;stroke-opacity:1;stroke-miterlimit:4;stroke-dasharray:none"/><path style="fill:url(#linearGradient2532);fill-opacity:1;fill-rule:evenodd;stroke:none;stroke-width:.4;stroke-linecap:butt;stroke-linejoin:miter;stroke-opacity:1;stroke-miterlimit:4;stroke-dasharray:none" id="path2530" d="M 21.204504,3.9202283 C 19.928886,5.5539603 16.74933,7.2818405 15.172766,7.7308566 C 15.145466,7.7386319 15.105784,7.7250151 15.079468,7.7320266 C 15.072742,7.7316993 15.055109,7.732802 15.048368,7.7324165 C 14.650624,7.7096767 14.238173,7.5715893 13.742225,7.2853299 C 12.289503,6.446823 12.879904,6.6700875 11.294607,6.061939 C 11.278069,6.0555947 11.247761,6.0412534 11.23058,6.0354791 C 10.235377,5.7228195 8.2439299,6.3242252 7.8955969,6.4317152 C 8.2330789,6.4735763 9.6572729,6.7041764 10.648726,7.5694867 C 10.655028,7.5749859 10.6752,7.5909149 10.681653,7.5963365 C 10.688259,7.6016816 10.707823,7.617918 10.71458,7.6231863 C 11.00465,7.8412651 11.449869,7.9995723 11.960352,8.098293 C 11.191439,8.1547726 10.389788,8.2395951 9.5510419,8.3738702 C 7.9853179,8.624527 7.0166309,9.1686455 6.5708749,9.8834276 C 6.1251189,10.59821 6.2720579,11.473414 6.8725639,12.060661 C 8.6152779,13.764899 13.27622,12.890641 13.257155,11.189979 C 13.256157,11.161035 13.253585,11.110433 13.249845,11.08102 C 13.244298,11.044112 13.2196,10.982814 13.209609,10.945212 C 13.198712,10.907473 13.184887,10.847796 13.169372,10.809403 C 13.16279,10.793995 13.141961,10.770821 13.134618,10.755313 C 12.209553,8.8012841 9.9681499,9.9791836 9.2197429,10.858931 C 10.024216,10.387328 11.144923,10.296687 11.537582,10.611763 C 11.545005,10.6181 11.56365,10.631959 11.570509,10.638613 C 11.580365,10.648835 11.596736,10.681766 11.605263,10.692703 C 11.6078,10.69651 11.635809,10.715667 11.63819,10.719553 C 11.640414,10.723519 11.637952,10.742745 11.640017,10.746793 C 11.641921,10.750919 11.640104,10.769825 11.641844,10.774033 C 11.646572,10.786893 11.673391,10.814536 11.676598,10.828121 C 11.677496,10.832731 11.677704,10.850672 11.678427,10.855362 C 11.678971,10.860133 11.679887,10.87775 11.680254,10.882602 C 11.68044,10.887535 11.682076,10.904827 11.682081,10.909841 C 11.683366,12.314752 7.9387029,12.332835 7.6171899,11.097129 C 7.5390779,10.796909 7.5446019,10.53895 7.5971229,10.334024 C 7.6031989,10.312388 7.6153439,10.27261 7.6227409,10.251916 C 7.6305699,10.231527 7.6392489,10.189288 7.6483579,10.169806 C 7.6547089,10.157014 7.6688999,10.12734 7.6758029,10.114936 C 7.9914999,9.5775425 8.8400879,9.3962534 9.7961149,9.2432036 C 11.754785,8.9296394 13.848016,9.2359383 15.571476,9.0344665 C 18.178868,8.7296625 19.33162,8.369795 20.757944,6.5430475 L 21.204504,3.9202283 z"/><path id="path2534" d="M 16.175922,14.324039 C 17.824078,12 17.824078,8 23.824078,8 C 29.824078,8 29.824078,12 31.824078,14 C 28.824078,14 23.824078,14 21.824078,10 C 19.824078,6 22.824078,4 23.824078,3 C 24.824078,5 27.824078,6 25.824078,10 C 23.824078,14 19.824078,14 16.175922,14.324039 z" style="fill:none;fill-opacity:1;fill-rule:evenodd;stroke:url(#linearGradient2498);stroke-width:1px;stroke-linecap:butt;stroke-linejoin:miter;stroke-opacity:1;display:none"/><path style="opacity:1;fill:url(#linearGradient3042);fill-opacity:1;fill-rule:evenodd;stroke:none;stroke-width:.80000001;stroke-linecap:butt;stroke-linejoin:miter;stroke-miterlimit:4;stroke-dasharray:none;stroke-dashoffset:0;stroke-opacity:1" id="path3034" d="M 5.9761474,41.84347 L 8.939445,37.004649 C 8.939445,37.004649 8.209098,39.968921 8.750901,41.781261 L 5.9761474,41.84347 z"/><path style="opacity:1;fill:url(#linearGradient2894);fill-opacity:1;fill-rule:evenodd;stroke:none;stroke-width:.80000001;stroke-linecap:butt;stroke-linejoin:miter;stroke-miterlimit:10;stroke-dasharray:none;stroke-dashoffset:0;stroke-opacity:1" id="path2886" d="M 18.826719,42.696699 C 22.262816,40.122388 27.665553,41.459262 27.665553,41.459262 C 23.196961,39.11567 23.776465,34.65336 23.776465,34.65336 L 21.502417,38.938893 L 21.036427,20.688001 C 21.036427,20.688001 19.102933,38.199942 18.826719,42.696699 z"/><path id="path2804" d="M 28.189601,29.435083 L 28.756543,33.102661 C 22.127417,30.804564 18.20616,39.186291 18.20616,39.186291 L 18.725767,33.000947 C 21.996136,26.636986 28.189601,29.435083 28.189601,29.435083 z" style="opacity:1;fill:url(#linearGradient2820);fill-opacity:1;fill-rule:evenodd;stroke:url(#linearGradient2848);stroke-width:.80000001;stroke-linecap:butt;stroke-linejoin:miter;stroke-miterlimit:10;stroke-dasharray:none;stroke-dashoffset:0;stroke-opacity:1"/><path style="opacity:1;fill:url(#linearGradient2812);fill-opacity:1;fill-rule:evenodd;stroke:url(#linearGradient2934);stroke-width:.80000001;stroke-linecap:butt;stroke-linejoin:miter;stroke-miterlimit:10;stroke-dasharray:none;stroke-dashoffset:0;stroke-opacity:1" id="path2584" d="M 19.335602,25.185083 L 19.08116,29.040161 C 25.710286,26.742064 29.506543,35.186291 29.506543,35.186291 L 28.924436,29.000947 C 25.654067,22.636986 19.335602,25.185083 19.335602,25.185083 z"/><path style="opacity:1;fill:url(#linearGradient2948);fill-opacity:1;fill-rule:evenodd;stroke:none;stroke-width:.80000001;stroke-linecap:butt;stroke-linejoin:miter;stroke-miterlimit:10;stroke-dasharray:none;stroke-dashoffset:0;stroke-opacity:1" id="path2850" d="M 19.775888,25.4375 L 19.625,27.25 C 26.15165,25.202665 28.5,29.0625 28.5,29.0625 C 25.75,23.400888 19.775888,25.4375 19.775888,25.4375 z"/><path style="opacity:1;fill:url(#linearGradient2884);fill-opacity:1;fill-rule:evenodd;stroke:none;stroke-width:.80000001;stroke-linecap:butt;stroke-linejoin:miter;stroke-miterlimit:10;stroke-dasharray:none;stroke-dashoffset:0;stroke-opacity:1" id="path2876" d="M 19.091883,33.150758 L 18.826718,35.890796 C 18.826718,35.890796 20.32932,31.559767 25.013902,30.233942 L 23.422912,29.26167 C 20.506097,30.410719 19.091883,33.150758 19.091883,33.150758 z"/><path style="opacity:1;fill:url(#linearGradient2904);fill-opacity:1;fill-rule:evenodd;stroke:none;stroke-width:.80000001;stroke-linecap:butt;stroke-linejoin:miter;stroke-miterlimit:10;stroke-dasharray:none;stroke-dashoffset:0;stroke-opacity:1" id="path2896" d="M 3.7123106,16.003418 C 3.7123106,16.003418 3.7344076,14.368233 4.331029,12.202719 C 5.2812038,14.810175 12.937845,13.804758 28.637825,15.649865 C 16.849029,15.903982 3.7123106,16.003418 3.7123106,16.003418 z"/><path style="opacity:1;fill:url(#linearGradient2914);fill-opacity:1;fill-rule:evenodd;stroke:none;stroke-width:.80000001;stroke-linecap:butt;stroke-linejoin:miter;stroke-miterlimit:10;stroke-dasharray:none;stroke-dashoffset:0;stroke-opacity:1" id="path2906" d="M 10.871767,24.135146 C 9.5459418,21.218331 9.811107,18.124739 9.811107,18.124739 C 9.811107,18.124739 12.844039,22.330768 14.435029,24.186923 L 10.871767,24.135146 z"/><path style="opacity:1;fill:url(#linearGradient3052);fill-opacity:1;fill-rule:evenodd;stroke:none;stroke-width:.80000001;stroke-linecap:butt;stroke-linejoin:miter;stroke-miterlimit:4;stroke-dasharray:none;stroke-dashoffset:0;stroke-opacity:1" id="path3044" d="M 6.8059027,1.5077291 L 6.0104076,3.9826029 C 11.490485,2.480001 41.277358,1.6845057 41.277358,1.6845057 C 41.277358,1.6845057 18.73833,0.88901067 6.8059027,1.5077291 z"/><g style="fill:#000;fill-opacity:.71345029;fill-rule:nonzero;stroke:none;stroke-miterlimit:4" id="g4202" transform="matrix(0.982371,0,0,0.982371,-95.08579,-6.252994)"><g id="g4204" style="opacity:.75"><path id="path4206"/></g><g id="g4208"><path id="path4210"/></g></g><g style="fill:#000;fill-opacity:.71345029;fill-rule:nonzero;stroke:none;stroke-miterlimit:4" id="g4212" transform="matrix(0.982371,0,0,0.982371,-95.08579,-6.252994)"><g id="g4214" style="opacity:.75"><path id="path4216"/></g><g id="g4218"><path id="path4220"/></g></g><g style="color:#000;fill:url(#radialGradient1526);fill-opacity:1;fill-rule:nonzero;stroke:none;stroke-width:1.01794541;stroke-linecap:butt;stroke-linejoin:miter;marker:none;marker-start:none;marker-mid:none;marker-end:none;stroke-miterlimit:4;stroke-dashoffset:0;stroke-opacity:1;visibility:visible;display:inline;overflow:visible" id="g3282" transform="matrix(0.982371,0,0,0.982371,-95.28782,-6.455025)"><g id="g3284" style="opacity:.75;color:#000;fill:url(#radialGradient1528);marker:none;marker-start:none;marker-mid:none;marker-end:none;stroke-dashoffset:0;visibility:visible;display:inline;overflow:visible"><path id="path3286" style="color:#000;fill:url(#radialGradient3769);marker:none;marker-start:none;marker-mid:none;marker-end:none;stroke-dashoffset:0;visibility:visible;display:inline;overflow:visible"/></g><g style="color:#000;fill:url(#radialGradient1532);marker:none;marker-start:none;marker-mid:none;marker-end:none;stroke-dashoffset:0;visibility:visible;display:inline;overflow:visible" id="g3288"><path style="color:#000;fill:url(#radialGradient3771);marker:none;marker-start:none;marker-mid:none;marker-end:none;stroke-dashoffset:0;visibility:visible;display:inline;overflow:visible" id="path3290"/></g></g><g style="color:#000;fill:url(#radialGradient1536);fill-opacity:1;fill-rule:nonzero;stroke:none;stroke-width:1.01794541;stroke-linecap:butt;stroke-linejoin:miter;marker:none;marker-start:none;marker-mid:none;marker-end:none;stroke-miterlimit:4;stroke-dashoffset:0;stroke-opacity:1;visibility:visible;display:inline;overflow:visible" id="g3292" transform="matrix(0.982371,0,0,0.982371,-95.28782,-6.455025)"><g id="g3294" style="opacity:.75;color:#000;fill:url(#radialGradient1538);marker:none;marker-start:none;marker-mid:none;marker-end:none;stroke-dashoffset:0;visibility:visible;display:inline;overflow:visible"><path id="path3296" style="color:#000;fill:url(#radialGradient3773);marker:none;marker-start:none;marker-mid:none;marker-end:none;stroke-dashoffset:0;visibility:visible;display:inline;overflow:visible"/></g><g style="color:#000;fill:url(#radialGradient1542);marker:none;marker-start:none;marker-mid:none;marker-end:none;stroke-dashoffset:0;visibility:visible;display:inline;overflow:visible" id="g3298"><path style="color:#000;fill:url(#radialGradient3775);marker:none;marker-start:none;marker-mid:none;marker-end:none;stroke-dashoffset:0;visibility:visible;display:inline;overflow:visible" id="path3300"/></g></g></g></svg>